#N canvas 710 340 450 300 10;
#X obj 80 85 r x0p;
#X obj 120 85 r y0p;
#X obj 80 194 line~;
#X obj 80 215 *~;
#X obj 80 173 pack 0 500;
#X obj 120 106 t b f;
#X obj 80 139 expr if ((($f1 > $f3 && $f1 < $f5) && ($f2 > $f4 && $f2
< $f6)) \, 1 \, 0);
#X obj 215 85 loadbang;
#X obj 215 116 f \$1;
#X obj 283 116 f \$2;
#X obj 351 116 f \$3;
#X obj 419 116 f \$4;
#X text 82 26 4 arguments: xmin ymin xmax ymax;
#X obj 80 236 s~ limits0;
#X connect 0 0 6 0;
#X connect 1 0 5 0;
#X connect 2 0 3 0;
#X connect 2 0 3 1;
#X connect 3 0 13 0;
#X connect 4 0 2 0;
#X connect 5 0 6 0;
#X connect 5 1 6 1;
#X connect 6 0 4 0;
#X connect 7 0 8 0;
#X connect 7 0 9 0;
#X connect 7 0 10 0;
#X connect 7 0 11 0;
#X connect 8 0 6 2;
#X connect 9 0 6 3;
#X connect 10 0 6 4;
#X connect 11 0 6 5;
