#N canvas 69 178 450 351 10;
#X obj 150 186 inlet~;
#N canvas 710 340 450 300 playback 1;
#X obj 122 114 *~;
#X obj 122 69 inlet~;
#X obj 137 92 r~ amp-\$0;
#X obj 122 226 throw~ L0;
#X obj 191 226 throw~ R0;
#X connect 0 0 3 0;
#X connect 0 0 4 0;
#X connect 1 0 0 0;
#X connect 2 0 0 1;
#X restore 150 206 pd playback;
#N canvas 710 340 450 300 distance-to-amplitude 0;
#X obj 137 158 pack f 10;
#X obj 137 179 line~;
#X obj 137 116 clip 0 1;
#X floatatom 137 137 5 0 0 0 - - -, f 5;
#X obj 137 95 maxlib/scale 0 1500 1 0.002 1;
#X obj 137 74 r distance-\$0;
#X obj 137 199 s~ amp-\$0;
#X connect 0 0 1 0;
#X connect 1 0 6 0;
#X connect 2 0 3 0;
#X connect 3 0 0 0;
#X connect 4 0 2 0;
#X connect 5 0 4 0;
#X restore 150 166 pd distance-to-amplitude;
#X text 45 296 *) if the sound is to be inside the main square. It's
possible to use values outside this range \, so the sound source will
be outside the working area;
#X text 57 9 sound-omnispot: a localized sound in the space but which
is not affected by the angle. It has two arguments \, x and y \, both
of which range from 0-999*.;
#N canvas 120 127 532 402 distances 0;
#X obj 165 158 -;
#X obj 181 125 t b f;
#X floatatom 165 244 5 0 0 0 - - -, f 5;
#X obj 165 223 expr sqrt($f1*$f1 + $f2*$f2);
#X obj 303 158 -;
#X obj 319 125 t b f;
#X obj 303 179 t b f;
#X obj 165 56 r x-\$0;
#X obj 303 56 r y-\$0;
#X obj 165 274 s distance-\$0;
#X obj 85 223 s dist-x-\$0;
#X obj 345 223 s dist-y-\$0;
#X obj 181 86 r x0p;
#X obj 319 86 r y0p;
#X connect 0 0 3 0;
#X connect 0 0 10 0;
#X connect 1 0 0 0;
#X connect 1 1 0 1;
#X connect 2 0 9 0;
#X connect 3 0 2 0;
#X connect 4 0 6 0;
#X connect 5 0 4 0;
#X connect 5 1 4 1;
#X connect 6 0 3 0;
#X connect 6 1 3 1;
#X connect 6 1 11 0;
#X connect 7 0 0 0;
#X connect 8 0 4 0;
#X connect 12 0 1 0;
#X connect 13 0 5 0;
#X restore 150 146 pd distances;
#N canvas 710 340 450 300 spot 0;
#X obj 165 90 loadbang;
#X obj 165 132 f \$1;
#X obj 210 132 f \$2;
#X obj 165 111 t b b, f 8;
#X obj 165 153 s x-\$0;
#X obj 210 153 s y-\$0;
#X connect 0 0 3 0;
#X connect 1 0 4 0;
#X connect 2 0 5 0;
#X connect 3 0 1 0;
#X connect 3 1 2 0;
#X restore 150 126 pd spot;
#X connect 0 0 1 0;
