#N canvas 1309 586 450 351 10;
#X obj 163 208 inlet~;
#N canvas 710 340 450 300 playback 0;
#X obj 122 114 *~;
#X obj 122 69 inlet~;
#X obj 137 92 r~ amp-\$0;
#X obj 122 226 throw~ L0;
#X obj 191 226 throw~ R0;
#X obj 122 205 +binaural~;
#X obj 250 84 line 0 1;
#X obj 250 42 r angle-\$0;
#X obj 250 63 pack f 40;
#X obj 250 104 expr if ($f1>180 \, $f1-360 \, $f1);
#X msg 250 125 angle \$1;
#X connect 0 0 5 0;
#X connect 1 0 0 0;
#X connect 2 0 0 1;
#X connect 5 0 3 0;
#X connect 5 1 4 0;
#X connect 6 0 9 0;
#X connect 7 0 8 0;
#X connect 8 0 6 0;
#X connect 9 0 10 0;
#X connect 10 0 5 0;
#X restore 163 228 pd playback;
#N canvas 708 289 996 452 distances-and-angles 0;
#X obj 165 158 -;
#X floatatom 528 72 5 0 0 0 - - -, f 5;
#X floatatom 528 361 5 0 0 0 - - -, f 5;
#X floatatom 612 72 5 0 0 0 - - -, f 5;
#X obj 528 121 pack 0 0;
#X obj 528 143 atan2;
#X obj 181 86 r x0p;
#X obj 528 164 rad2deg;
#X obj 600 247 r a0p;
#X obj 600 270 t b f;
#X obj 612 93 t b f;
#X obj 181 125 t b f;
#X floatatom 165 244 5 0 0 0 - - -, f 5;
#X obj 165 223 expr sqrt($f1*$f1 + $f2*$f2);
#X floatatom 528 185 5 0 0 0 - - -, f 5;
#X obj 303 158 -;
#X obj 319 125 t b f;
#X obj 319 86 r y0p;
#X obj 303 179 t b f;
#X obj 528 315 -;
#X obj 528 206 * -1;
#X obj 528 227 + 90;
#X floatatom 528 248 5 0 0 0 - - -, f 5;
#X text 161 337 expr if ($f1 >= 360 \, $f1-360 \, (if ($f1<0 \, $f1
+ 360 \, $f1)));
#X obj 528 336 mod 360;
#X obj 165 56 r x-\$0;
#X obj 303 56 r y-\$0;
#X obj 165 274 s distance-\$0;
#X obj 85 223 s dist-x-\$0;
#X obj 345 223 s dist-y-\$0;
#X obj 528 50 r dist-y-\$0;
#X obj 612 50 r dist-x-\$0;
#X obj 528 390 s angle-\$0;
#X connect 0 0 13 0;
#X connect 0 0 28 0;
#X connect 1 0 4 0;
#X connect 2 0 32 0;
#X connect 3 0 10 0;
#X connect 4 0 5 0;
#X connect 5 0 7 0;
#X connect 6 0 11 0;
#X connect 7 0 14 0;
#X connect 8 0 9 0;
#X connect 9 0 19 0;
#X connect 9 1 19 1;
#X connect 10 0 4 0;
#X connect 10 1 4 1;
#X connect 11 0 0 0;
#X connect 11 1 0 1;
#X connect 12 0 27 0;
#X connect 13 0 12 0;
#X connect 14 0 20 0;
#X connect 15 0 18 0;
#X connect 16 0 15 0;
#X connect 16 1 15 1;
#X connect 17 0 16 0;
#X connect 18 0 13 0;
#X connect 18 1 13 1;
#X connect 18 1 29 0;
#X connect 19 0 24 0;
#X connect 20 0 21 0;
#X connect 21 0 22 0;
#X connect 22 0 19 0;
#X connect 24 0 2 0;
#X connect 25 0 0 0;
#X connect 26 0 15 0;
#X connect 30 0 1 0;
#X connect 31 0 3 0;
#X restore 163 168 pd distances-and-angles;
#N canvas 710 340 450 300 distance-to-amplitude 0;
#X obj 137 158 pack f 10;
#X obj 137 179 line~;
#X obj 137 116 clip 0 1;
#X floatatom 137 137 5 0 0 0 - - -, f 5;
#X obj 137 95 maxlib/scale 0 1500 1 0.002 1;
#X obj 137 74 r distance-\$0;
#X obj 137 199 s~ amp-\$0;
#X connect 0 0 1 0;
#X connect 1 0 6 0;
#X connect 2 0 3 0;
#X connect 3 0 0 0;
#X connect 4 0 2 0;
#X connect 5 0 4 0;
#X restore 163 188 pd distance-to-amplitude;
#X text 58 305 *) if the sound is to be inside the main square. It's
possible to use values outside this range \, so the sound source will
be outside the working area;
#N canvas 261 271 769 508 vector 0;
#X obj 396 310 line;
#X obj 396 82 loadbang;
#X obj 582 212 delay \$5;
#X obj 489 168 delay \$5;
#X obj 534 210 f \$5;
#X msg 489 253 \$1 \$2;
#X obj 489 231 pack f f;
#X obj 396 103 t b b, f 41;
#X obj 441 168 f \$5;
#X obj 396 189 pack f f;
#X obj 396 168 f \$4;
#X obj 638 268 f \$2;
#X obj 489 210 f \$2;
#X obj 396 147 t b b b, f 16;
#X obj 489 189 t b b b, f 16;
#X obj 66 82 loadbang;
#X obj 252 212 delay \$5;
#X obj 159 168 delay \$5;
#X obj 204 210 f \$5;
#X msg 159 253 \$1 \$2;
#X obj 159 231 pack f f;
#X obj 66 103 t b b, f 41;
#X obj 111 168 f \$5;
#X obj 66 189 pack f f;
#X obj 66 147 t b b b, f 16;
#X obj 159 189 t b b b, f 16;
#X obj 66 168 f \$3;
#X obj 159 210 f \$1;
#X obj 308 268 f \$1;
#X msg 396 210 \$1 \$2;
#X msg 66 210 \$1 \$2;
#X obj 67 377 s x-\$0;
#X obj 66 310 line 0 1;
#X obj 397 377 s y-\$0;
#X connect 0 0 33 0;
#X connect 1 0 7 0;
#X connect 2 0 13 0;
#X connect 3 0 14 0;
#X connect 4 0 6 1;
#X connect 5 0 0 0;
#X connect 6 0 5 0;
#X connect 7 0 13 0;
#X connect 7 1 11 0;
#X connect 8 0 9 1;
#X connect 9 0 29 0;
#X connect 10 0 9 0;
#X connect 11 0 0 0;
#X connect 12 0 6 0;
#X connect 13 0 10 0;
#X connect 13 1 8 0;
#X connect 13 2 3 0;
#X connect 14 0 12 0;
#X connect 14 1 4 0;
#X connect 14 2 2 0;
#X connect 15 0 21 0;
#X connect 16 0 24 0;
#X connect 17 0 25 0;
#X connect 18 0 20 1;
#X connect 19 0 32 0;
#X connect 20 0 19 0;
#X connect 21 0 24 0;
#X connect 21 1 28 0;
#X connect 22 0 23 1;
#X connect 23 0 30 0;
#X connect 24 0 26 0;
#X connect 24 1 22 0;
#X connect 24 2 17 0;
#X connect 25 0 27 0;
#X connect 25 1 18 0;
#X connect 25 2 16 0;
#X connect 26 0 23 0;
#X connect 27 0 20 0;
#X connect 28 0 32 0;
#X connect 29 0 0 0;
#X connect 30 0 32 0;
#X connect 32 0 31 0;
#X restore 163 148 pd vector;
#X text 70 18 sound-vector: a localized sound in the space moving through
a vector. It has five arguments \, x1 \, y1 \, x2 \, y2 (all of which
range from 0-999*) and time (in ms).;
#X connect 0 0 1 0;
