#N canvas 1287 84 450 407 10;
#X obj 157 236 inlet~;
#N canvas 710 340 450 300 playback 0;
#X obj 122 114 *~;
#X obj 223 121 line 0 1;
#X obj 122 69 inlet~;
#X obj 137 92 r~ amp-\$0;
#X obj 223 79 r angle-\$0;
#X obj 223 100 pack f 40;
#X obj 122 226 throw~ L0;
#X obj 191 226 throw~ R0;
#X obj 122 205 +binaural~;
#X obj 223 141 expr if ($f1>180 \, $f1-360 \, $f1);
#X msg 223 162 angle \$1;
#X connect 0 0 8 0;
#X connect 1 0 9 0;
#X connect 2 0 0 0;
#X connect 3 0 0 1;
#X connect 4 0 5 0;
#X connect 5 0 1 0;
#X connect 8 0 6 0;
#X connect 8 1 7 0;
#X connect 9 0 10 0;
#X connect 10 0 8 0;
#X restore 157 256 pd playback;
#N canvas 708 289 996 452 distances-and-angles 0;
#X obj 165 158 -;
#X floatatom 528 72 5 0 0 0 - - -, f 5;
#X floatatom 528 361 5 0 0 0 - - -, f 5;
#X floatatom 612 72 5 0 0 0 - - -, f 5;
#X obj 528 121 pack 0 0;
#X obj 528 143 atan2;
#X obj 181 86 r x0p;
#X obj 528 164 rad2deg;
#X obj 600 247 r a0p;
#X obj 600 270 t b f;
#X obj 612 93 t b f;
#X obj 181 125 t b f;
#X floatatom 165 244 5 0 0 0 - - -, f 5;
#X obj 165 223 expr sqrt($f1*$f1 + $f2*$f2);
#X floatatom 528 185 5 0 0 0 - - -, f 5;
#X obj 303 158 -;
#X obj 319 125 t b f;
#X obj 319 86 r y0p;
#X obj 303 179 t b f;
#X obj 528 315 -;
#X obj 528 206 * -1;
#X obj 528 227 + 90;
#X floatatom 528 248 5 0 0 0 - - -, f 5;
#X text 161 337 expr if ($f1 >= 360 \, $f1-360 \, (if ($f1<0 \, $f1
+ 360 \, $f1)));
#X obj 528 336 mod 360;
#X obj 165 56 r x-\$0;
#X obj 303 56 r y-\$0;
#X obj 165 274 s distance-\$0;
#X obj 85 223 s dist-x-\$0;
#X obj 345 223 s dist-y-\$0;
#X obj 528 50 r dist-y-\$0;
#X obj 612 50 r dist-x-\$0;
#X obj 528 390 s angle-\$0;
#X connect 0 0 13 0;
#X connect 0 0 28 0;
#X connect 1 0 4 0;
#X connect 2 0 32 0;
#X connect 3 0 10 0;
#X connect 4 0 5 0;
#X connect 5 0 7 0;
#X connect 6 0 11 0;
#X connect 7 0 14 0;
#X connect 8 0 9 0;
#X connect 9 0 19 0;
#X connect 9 1 19 1;
#X connect 10 0 4 0;
#X connect 10 1 4 1;
#X connect 11 0 0 0;
#X connect 11 1 0 1;
#X connect 12 0 27 0;
#X connect 13 0 12 0;
#X connect 14 0 20 0;
#X connect 15 0 18 0;
#X connect 16 0 15 0;
#X connect 16 1 15 1;
#X connect 17 0 16 0;
#X connect 18 0 13 0;
#X connect 18 1 13 1;
#X connect 18 1 29 0;
#X connect 19 0 24 0;
#X connect 20 0 21 0;
#X connect 21 0 22 0;
#X connect 22 0 19 0;
#X connect 24 0 2 0;
#X connect 25 0 0 0;
#X connect 26 0 15 0;
#X connect 30 0 1 0;
#X connect 31 0 3 0;
#X restore 157 196 pd distances-and-angles;
#N canvas 710 340 450 300 distance-to-amplitude 0;
#X obj 137 158 pack f 10;
#X obj 137 179 line~;
#X obj 137 116 clip 0 1;
#X floatatom 137 137 5 0 0 0 - - -, f 5;
#X obj 137 95 maxlib/scale 0 1500 1 0.002 1;
#X obj 137 74 r distance-\$0;
#X obj 137 199 s~ amp-\$0;
#X connect 0 0 1 0;
#X connect 1 0 6 0;
#X connect 2 0 3 0;
#X connect 3 0 0 0;
#X connect 4 0 2 0;
#X connect 5 0 4 0;
#X restore 157 216 pd distance-to-amplitude;
#X text 44 339 *) if the sound is to be inside the main square. It's
possible to use values outside this range \, so the sound source will
be outside the working area;
#X text 56 12 sound-circle: a localized sound in the space moving around
a circle. It has four arguments \, the coordinates of the centre of
the circle x and y (both of which range from 0-999*) \, the radium
of the circle and the period (in ms. If positive then movement is clockwise
\, if negative movement is anticlockwise).;
#N canvas 261 271 358 478 cicle 0;
#X obj 66 19 loadbang;
#X obj 124 123 abs;
#X obj 66 144 sel 1;
#X obj 66 123 >= 0;
#X obj 66 182 pack f f, f 10;
#X obj 196 182 pack f f, f 10;
#X obj 66 246 line;
#X obj 66 316 poltocar;
#X obj 66 267 t b f;
#X obj 66 337 * \$3;
#X obj 159 337 * \$3;
#X obj 66 358 + \$1;
#X obj 159 358 + \$2;
#X obj 66 50 f \$4;
#X obj 66 291 f 1;
#X obj 183 91 abs;
#X obj 183 112 delay;
#X obj 66 71 t f f f, f 20;
#X msg 196 205 0 \, 6.28319 \$2;
#X msg 66 205 6.28319 \, 0 \$2;
#X obj 66 391 pack f 10;
#X obj 66 412 line 0 1;
#X obj 159 391 pack f 10;
#X obj 159 412 line 0 1;
#X obj 66 433 s x-\$0;
#X obj 159 433 s y-\$0;
#X connect 0 0 13 0;
#X connect 1 0 4 1;
#X connect 1 0 5 1;
#X connect 2 0 4 0;
#X connect 2 1 5 0;
#X connect 3 0 2 0;
#X connect 4 0 19 0;
#X connect 5 0 18 0;
#X connect 6 0 8 0;
#X connect 7 0 9 0;
#X connect 7 1 10 0;
#X connect 8 0 14 0;
#X connect 8 1 7 1;
#X connect 9 0 11 0;
#X connect 10 0 12 0;
#X connect 11 0 20 0;
#X connect 12 0 22 0;
#X connect 13 0 17 0;
#X connect 14 0 7 0;
#X connect 15 0 16 0;
#X connect 16 0 13 0;
#X connect 17 0 3 0;
#X connect 17 1 1 0;
#X connect 17 2 15 0;
#X connect 18 0 6 0;
#X connect 19 0 6 0;
#X connect 20 0 21 0;
#X connect 21 0 24 0;
#X connect 22 0 23 0;
#X connect 23 0 25 0;
#X restore 157 176 pd cicle;
#X connect 0 0 1 0;
