#N canvas 708 341 588 366 10;
#X obj 195 182 rad2deg;
#X floatatom 52 205 5 0 0 0 - - -;
#X floatatom 195 204 5 0 0 0 - - -;
#X floatatom 126 205 5 0 0 0 - - -;
#X obj 52 116 r x0;
#X obj 52 226 s x0p;
#X obj 195 225 s a0p;
#X obj 126 226 s y0p;
#X obj 126 116 r y0;
#X obj 195 116 r a0;
#X text 239 226 <- processed data;
#X obj 126 138 pack f 50;
#X obj 52 138 pack f 50;
#X obj 52 159 line 0 1;
#X obj 126 159 line 0 1;
#X obj 52 184 * \$1;
#X obj 126 184 * \$2;
#X text 47 69 interpolating and mapping data (reacTIVision's default
is 0..1 for space and 0..2pi for angles). Takes two arguments \, x
and y \, which are the size of the camera view;
#X text 211 139 <- no interpolation for angles as +binaural~ works
better without it;
#X connect 0 0 2 0;
#X connect 1 0 5 0;
#X connect 2 0 6 0;
#X connect 3 0 7 0;
#X connect 4 0 12 0;
#X connect 8 0 11 0;
#X connect 9 0 0 0;
#X connect 11 0 14 0;
#X connect 12 0 13 0;
#X connect 13 0 15 0;
#X connect 14 0 16 0;
#X connect 15 0 1 0;
#X connect 16 0 3 0;
