#N canvas 153 134 632 321 10;
#X obj 145 59 bng 15 250 50 0 empty empty empty 0 -6 0 8 -262144 -1
-1;
#X obj 88 35 TuioClient;
#X obj 88 85 route addObject removeObject updateObject;
#X obj 88 123 unpack \$1 \$2;
#X obj 208 123 unpack \$1 \$2;
#X obj 336 125 unpack \$1 \$2 \$3 \$4 \$5;
#X obj 102 168 print addObject;
#X obj 229 168 print removeObject;
#X obj 366 201 unpack f f f;
#X obj 366 223 s x0;
#X obj 400 223 s y0;
#X obj 435 223 s a0;
#X obj 366 154 pack f f f f;
#X obj 366 178 route 0 1;
#X obj 476 201 unpack f f f;
#X obj 476 223 s x1;
#X obj 510 223 s y1;
#X obj 545 223 s a1;
#X connect 1 0 2 0;
#X connect 1 1 0 0;
#X connect 2 0 3 0;
#X connect 2 1 4 0;
#X connect 2 2 5 0;
#X connect 3 1 6 0;
#X connect 4 1 7 0;
#X connect 5 1 12 0;
#X connect 5 2 12 1;
#X connect 5 3 12 2;
#X connect 5 4 12 3;
#X connect 8 0 9 0;
#X connect 8 1 10 0;
#X connect 8 2 11 0;
#X connect 12 0 13 0;
#X connect 13 0 8 0;
#X connect 13 1 14 0;
#X connect 14 0 15 0;
#X connect 14 1 16 0;
#X connect 14 2 17 0;
